<svg xmlns="http://www.w3.org/2000/svg" viewBox="0 0 260.45 104.32"><defs><style>.cls-1{fill:#fff;}.cls-2{isolation:isolate;}.cls-3{fill:#b5acac;}</style></defs><g id="Calque_2" data-name="Calque 2"><g id="Calque_1-2" data-name="Calque 1"><path class="cls-1" d="M78.75,104.32l-4.3-4a10.78,10.78,0,0,1-3.4,2.1,12.13,12.13,0,0,1-4.3.7,10.89,10.89,0,0,1-6.1-1.6,10.59,10.59,0,0,1-4-4.6,16.26,16.26,0,0,1,0-13.2,10.91,10.91,0,0,1,4-4.5,11.11,11.11,0,0,1,6.1-1.6,11.23,11.23,0,0,1,6.2,1.6,10.91,10.91,0,0,1,4,4.5,15.26,15.26,0,0,1,1.4,6.6,16.11,16.11,0,0,1-.4,3.9,12,12,0,0,1-1.3,3.3l4.6,4.3Zm-12-4.1a7,7,0,0,0,5.4-2.2l-6.6-6.2,2.4-2.5,6.1,5.8a7.94,7.94,0,0,0,.6-2.2,21.12,21.12,0,0,0,.2-2.6,12.67,12.67,0,0,0-1.1-5.4,7.46,7.46,0,0,0-7-4.4,8.39,8.39,0,0,0-4.1,1.1,8.48,8.48,0,0,0-2.9,3.3,12.67,12.67,0,0,0-1.1,5.4,12.35,12.35,0,0,0,1.1,5.4,7.77,7.77,0,0,0,7,4.5Z"/><path class="cls-1" d="M95.55,103.12c-3.6,0-6.1-.9-7.7-2.7s-2.3-4.5-2.3-8.1V77.92h3.5v14.7a9.1,9.1,0,0,0,1.5,5.6c1,1.3,2.6,1.9,5,1.9s4-.6,5-1.9a8.9,8.9,0,0,0,1.5-5.6V77.92h3.5v14.4c0,3.6-.8,6.3-2.3,8.1S99.15,103.12,95.55,103.12Z"/><path class="cls-1" d="M112.85,102.72V78h16.8v3h-13.4v7.5h9.8v3h-9.8v8.2h13.3v3Zm6.2-27.6a6,6,0,0,0,.6-.7,15.38,15.38,0,0,0,1.2-1.3l1.3-1.3.8-.8a1.5,1.5,0,0,1,1.1-.4,1,1,0,0,1,.9.4,1.22,1.22,0,0,1,.4.9,1.43,1.43,0,0,1-.6,1.2,5.34,5.34,0,0,1-1,.7c-.5.3-.9.6-1.3.8a7.76,7.76,0,0,1-.7.4l-2.7.1Z"/><path class="cls-1" d="M135.45,102.72V78h10a9.29,9.29,0,0,1,4.4.9,7,7,0,0,1,2.5,2.3,6.11,6.11,0,0,1,.8,3,5.92,5.92,0,0,1-.7,2.9,6.67,6.67,0,0,1-1.9,2.5,6.43,6.43,0,0,1,2.8,2.6,6.87,6.87,0,0,1,0,6.8,7,7,0,0,1-2.7,2.7,8.82,8.82,0,0,1-4.5,1Zm3.5-14.2h6.8a3.23,3.23,0,0,0,2.8-1.2,4.32,4.32,0,0,0,.9-2.6,3.66,3.66,0,0,0-.4-1.8,3.74,3.74,0,0,0-1.3-1.5,3.7,3.7,0,0,0-2.1-.6h-6.8l.1,7.7Zm0,11.2h7.4a4.14,4.14,0,0,0,2.3-.6,4.28,4.28,0,0,0,1.4-1.6,5,5,0,0,0,.5-2.1,4.55,4.55,0,0,0-.5-2,5.21,5.21,0,0,0-1.4-1.6,4.14,4.14,0,0,0-2.3-.6H139Z"/><path class="cls-1" d="M160.05,102.72V78h16.8v3h-13.3v7.5h9.8v3h-9.8v8.2h13.3v3Z"/><path class="cls-1" d="M192.25,103.12a10.09,10.09,0,0,1-9.8-6.1,17.3,17.3,0,0,1,.1-13.4,10.64,10.64,0,0,1,10.1-6.1,11.62,11.62,0,0,1,5.6,1.4,8.91,8.91,0,0,1,3.8,4.1l-3,1.1a6.47,6.47,0,0,0-2.5-2.7,7.35,7.35,0,0,0-4.1-1.1,7.18,7.18,0,0,0-6.7,4.4,12.71,12.71,0,0,0-1,5.4,12.24,12.24,0,0,0,1,5.3,7.93,7.93,0,0,0,2.8,3.4,7.3,7.3,0,0,0,4.1,1.2,7.56,7.56,0,0,0,4.1-1,7.19,7.19,0,0,0,2.5-2.7l3,1.1a9.9,9.9,0,0,1-3.9,4.2A13.1,13.1,0,0,1,192.25,103.12Z"/><g class="cls-2"><path class="cls-1" d="M33.17,44.62Q32.81,52.77,28.59,57T16.68,61.14q-8.07,0-12.38-5.31T0,40.66v-8q0-9.81,4.45-15.13T16.82,12.2q7.79,0,11.82,4.35t4.6,12.5H23.59C23.5,25.69,23,23.38,22,22.1s-2.68-1.91-5.21-1.91-4.4.89-5.47,2.69-1.63,4.76-1.7,8.89v9q0,7.11,1.59,9.75c1,1.77,2.87,2.65,5.44,2.65s4.28-.62,5.24-1.85,1.5-3.46,1.63-6.69Z"/><path class="cls-1" d="M50.08,60.49H40.46V12.86h9.62Z"/><path class="cls-1" d="M92.4,60.49H82.78L68.71,29.25V60.49H59.09V12.86h9.62l14.1,31.27V12.86H92.4Z"/><path class="cls-1" d="M125.66,39.88h-15V52.51h17.74v8H101.06V12.86h27.28v8H110.67V32.13h15ZM117.28,0h10.41l-9.1,10.14h-7.72Z"/></g><g class="cls-2"><path class="cls-3" d="M152.55,60.82a7.84,7.84,0,0,1-3.5-.8,2.45,2.45,0,0,1-1.6-2.4v-42a2.45,2.45,0,0,1,1.6-2.4,8.42,8.42,0,0,1,3.5-.7,8.12,8.12,0,0,1,3.5.7,2.6,2.6,0,0,1,1.6,2.4v16.2h13.1V15.62a2.45,2.45,0,0,1,1.6-2.4,8.42,8.42,0,0,1,3.5-.7,7.82,7.82,0,0,1,3.5.7,2.6,2.6,0,0,1,1.6,2.4v42a2.54,2.54,0,0,1-1.6,2.4,7.19,7.19,0,0,1-3.5.8,7.84,7.84,0,0,1-3.5-.8,2.45,2.45,0,0,1-1.6-2.4V39.72h-13v17.9a2.54,2.54,0,0,1-1.6,2.4A7.32,7.32,0,0,1,152.55,60.82Z"/><path class="cls-3" d="M204.55,61.22a22.44,22.44,0,0,1-8.4-1.5,12.71,12.71,0,0,1-6-5c-1.5-2.3-2.2-5.3-2.2-9.1v-30a2.45,2.45,0,0,1,1.6-2.4,8.27,8.27,0,0,1,3.6-.7,7.82,7.82,0,0,1,3.5.7,2.45,2.45,0,0,1,1.6,2.4v30a6.86,6.86,0,0,0,1.7,5,6.39,6.39,0,0,0,4.7,1.6,6.55,6.55,0,0,0,4.7-1.6,6.71,6.71,0,0,0,1.7-5v-30a2.45,2.45,0,0,1,1.6-2.4,8.27,8.27,0,0,1,3.6-.7,7.82,7.82,0,0,1,3.5.7,2.45,2.45,0,0,1,1.6,2.4v30c0,3.8-.7,6.8-2.2,9.1a13.31,13.31,0,0,1-6,5A23.52,23.52,0,0,1,204.55,61.22Z"/><path class="cls-3" d="M232.45,60.82a5.39,5.39,0,0,1-3.3-.9,2.63,2.63,0,0,1-1.2-2.2v-42a2.69,2.69,0,0,1,1.4-2.4,5.53,5.53,0,0,1,3.1-.8H246a18.9,18.9,0,0,1,6.3,1,10.4,10.4,0,0,1,5,3.5c1.3,1.7,1.9,4.1,1.9,7.2a12.9,12.9,0,0,1-1.5,6.6,8.62,8.62,0,0,1-4.1,3.7,12.29,12.29,0,0,1,3.6,1.9,8.32,8.32,0,0,1,2.4,3.3,13.29,13.29,0,0,1,.9,5.3v1.4a17.69,17.69,0,0,1-1.7,8.3,10.4,10.4,0,0,1-4.8,4.5,16.52,16.52,0,0,1-6.8,1.4h-14.7v.2Zm5.8-30.1h6.9a3,3,0,0,0,2.8-1.5,5.86,5.86,0,0,0,.9-3.1,5.38,5.38,0,0,0-.4-2.2,3.71,3.71,0,0,0-1.3-1.7,3.52,3.52,0,0,0-2.1-.7h-6.9v9.2Zm0,21.1h6.6a5,5,0,0,0,3.9-1.5,6.65,6.65,0,0,0,1.4-4.6v-1.1c0-2.2-.5-3.8-1.4-4.7a5.3,5.3,0,0,0-3.9-1.4h-6.6Z"/></g></g></g></svg>