<svg xmlns="http://www.w3.org/2000/svg" xmlns:xlink="http://www.w3.org/1999/xlink" viewBox="0 0 149 176"><defs><style>.cls-1{fill:none;}.cls-2{clip-path:url(#clip-path);}.cls-3{fill:#fff;}.cls-4{clip-path:url(#clip-path-2);}</style><clipPath id="clip-path" transform="translate(0 0)"><rect class="cls-1" width="149" height="176"/></clipPath><clipPath id="clip-path-2" transform="translate(0 0)"><path class="cls-1" d="M114.3,12.7c2.3.9,4.6,1.8,6.8,2.9s4.4,2.2,6.4,3.4,4.2,2.6,6.2,3.9,4,2.9,5.9,4.4a1.65,1.65,0,0,1,.2,2.6l-3.4,3.4c-1.1,1.1-2.2,2.1-3.2,3.1l-2.7,2.7c-.8.9-1.7,1.7-2.4,2.5a1.65,1.65,0,0,1-1.9,0l-4.2-3c-1.4-1-2.9-1.9-4.4-2.8s-3-1.6-4.6-2.4-3.1-1.4-4.7-2.2a1.43,1.43,0,0,1-.9-1.6c.3-1.1.7-2.2,1-3.3s.7-2.4,1-3.6c.4-1.4.8-2.8,1.2-4.3s.8-3,1.3-4.6a1.85,1.85,0,0,1,2.4-1.1M73.2,9.6c2.4-.4,4.8-.7,7.3-.9a59.33,59.33,0,0,1,7.3-.2c2.4,0,4.9.1,7.3.3s4.9.5,7.3.9a1.68,1.68,0,0,1,1.5,2.1c-.4,1.6-.9,3.2-1.3,4.7s-.8,2.9-1.2,4.3-.7,2.5-1,3.6-.6,2.3-.8,3.4a1.41,1.41,0,0,1-1.6.9c-1.7-.2-3.4-.3-5.1-.5s-3.4-.2-5.2-.2-3.4.1-5.2.2-3.4.3-5.1.5a1.4,1.4,0,0,1-1.6-1c-.2-1.1-.5-2.2-.8-3.4s-.6-2.4-.9-3.7-.7-2.8-1.1-4.3-.8-3-1.2-4.6A1.6,1.6,0,0,1,73.2,9.6ZM36,27.5a64.56,64.56,0,0,1,5.9-4.4c2-1.4,4.1-2.7,6.2-3.9s4.3-2.3,6.5-3.4,4.5-2,6.7-2.9A1.65,1.65,0,0,1,63.6,14c.4,1.6.8,3.2,1.2,4.7s.7,2.9,1.1,4.3.6,2.5,1,3.7a25.78,25.78,0,0,0,1,3.3,1.38,1.38,0,0,1-.9,1.6c-1.6.7-3.1,1.4-4.7,2.2a40.18,40.18,0,0,0-4.6,2.4c-1.5.9-2.9,1.8-4.3,2.8l-4.2,3a1.65,1.65,0,0,1-1.9,0c-.8-.8-1.5-1.7-2.4-2.5s-1.7-1.8-2.6-2.7-2-2.1-3.1-3.2-2.2-2.2-3.3-3.4A1.82,1.82,0,0,1,36,27.5ZM12.8,61.6c.9-2.3,1.8-4.6,2.9-6.8s2.2-4.4,3.4-6.5,2.6-4.2,3.9-6.2,2.9-4,4.4-5.9A1.65,1.65,0,0,1,30,36c1.2,1.2,2.3,2.3,3.4,3.5s2.1,2.2,3.1,3.2l2.7,2.7c.9.8,1.7,1.7,2.5,2.4a1.65,1.65,0,0,1,0,1.9l-3,4.2c-1,1.4-1.9,2.9-2.8,4.4s-1.6,3-2.4,4.6-1.4,3.1-2.2,4.7a1.43,1.43,0,0,1-1.6.9c-1.1-.3-2.2-.7-3.3-1s-2.4-.7-3.6-1c-1.4-.4-2.8-.8-4.3-1.2s-3-.8-4.6-1.3A1.78,1.78,0,0,1,12.8,61.6ZM9.7,102.7c-.4-2.4-.7-4.8-.9-7.3a59.33,59.33,0,0,1-.2-7.3c0-2.4.1-4.9.3-7.3s.5-4.9.9-7.3A1.68,1.68,0,0,1,11.9,72c1.6.4,3.2.9,4.6,1.3s2.9.8,4.3,1.2,2.5.7,3.6,1,2.3.6,3.4.8a1.41,1.41,0,0,1,.9,1.6c-.1,1.7-.3,3.4-.5,5.1s-.2,3.4-.2,5.2.1,3.4.2,5.2.3,3.4.5,5.2a1.4,1.4,0,0,1-1,1.6c-1.1.2-2.2.5-3.4.8s-2.4.6-3.7.9-2.8.7-4.3,1.1-3,.8-4.6,1.2A1.6,1.6,0,0,1,9.7,102.7Zm17.8,37.2a64.56,64.56,0,0,1-4.4-5.9c-1.4-2-2.7-4.1-3.9-6.2s-2.3-4.3-3.4-6.5-2-4.5-2.9-6.7a1.65,1.65,0,0,1,1.1-2.3c1.6-.4,3.2-.8,4.7-1.2s3-.7,4.3-1.1a31,31,0,0,0,3.6-1,25.78,25.78,0,0,0,3.3-1,1.38,1.38,0,0,1,1.6.9c.7,1.6,1.4,3.1,2.2,4.7a40.18,40.18,0,0,0,2.4,4.6c.9,1.5,1.8,2.9,2.8,4.3l3,4.2a1.65,1.65,0,0,1,0,1.9c-.8.8-1.7,1.5-2.5,2.4s-1.8,1.7-2.7,2.6-2.1,2-3.2,3.1l-3.4,3.4A1.65,1.65,0,0,1,27.5,139.9Zm34.1,23.3c-2.3-.9-4.6-1.8-6.8-2.9s-4.4-2.2-6.5-3.4-4.2-2.6-6.2-4-4-2.9-5.9-4.4a1.72,1.72,0,0,1-.2-2.6l3.4-3.4c1.1-1.1,2.2-2.1,3.2-3.1l2.7-2.7c.8-.9,1.7-1.7,2.4-2.5a1.65,1.65,0,0,1,1.9,0l4.2,3c1.4,1,2.9,1.9,4.4,2.8s3,1.6,4.6,2.4,3.1,1.4,4.7,2.2a1.43,1.43,0,0,1,.9,1.6c-.3,1.1-.7,2.2-1,3.3s-.7,2.4-1,3.6c-.4,1.4-.8,2.8-1.2,4.3s-.8,3-1.3,4.6A1.64,1.64,0,0,1,61.6,163.2Zm41.1,3.1c-2.4.4-4.8.7-7.3.9a59.33,59.33,0,0,1-7.3.2c-2.4,0-4.9-.1-7.3-.3s-4.9-.5-7.3-.9a1.68,1.68,0,0,1-1.5-2.1c.4-1.6.9-3.2,1.3-4.7s.8-2.9,1.2-4.3.7-2.5,1-3.6.6-2.3.8-3.4a1.41,1.41,0,0,1,1.6-.9c1.7.1,3.4.3,5.1.5s3.4.2,5.2.2,3.4-.1,5.1-.2,3.4-.3,5.1-.5a1.4,1.4,0,0,1,1.6,1c.2,1.1.5,2.2.8,3.4s.6,2.4.9,3.7.7,2.8,1.1,4.3.8,3,1.2,4.6C104.5,165.1,103.8,166.1,102.7,166.3Zm37.2-17.9a64.56,64.56,0,0,1-5.9,4.4c-2,1.4-4.1,2.7-6.2,3.9s-4.3,2.3-6.5,3.4-4.5,2-6.7,2.9a1.65,1.65,0,0,1-2.3-1.1c-.4-1.6-.8-3.2-1.2-4.7s-.7-3-1.1-4.3-.6-2.5-1-3.7a25.78,25.78,0,0,0-1-3.3,1.38,1.38,0,0,1,.9-1.6c1.6-.7,3.1-1.4,4.7-2.2a40.18,40.18,0,0,0,4.6-2.4c1.5-.9,2.9-1.8,4.3-2.8l4.2-3a1.65,1.65,0,0,1,1.9,0,27.75,27.75,0,0,0,2.4,2.5c.8.9,1.7,1.8,2.6,2.7s2,2.1,3.1,3.2l3.4,3.4A1.91,1.91,0,0,1,139.9,148.4ZM85,0h5.9V4H85ZM75.8.8,81.6.2,82,4.1l-5.8.6Zm-9,1.7,5.7-1.2.8,3.9L67.6,6.4ZM58,5.2l5.6-1.8,1.2,3.8L59.2,9ZM49.5,8.8l5.4-2.4L56.5,10l-5.3,2.4Zm-8,4.4,5.1-2.9,2,3.4-5.1,2.9Zm-7.6,5.3L38.6,15l2.3,3.2-4.7,3.4ZM27,24.6l4.4-3.9,2.7,3-4.3,3.9Zm-6.3,6.7,3.9-4.4,2.9,2.7L23.6,34Zm-5.6,7.3,3.4-4.7,3.2,2.3-3.4,4.7Zm-4.8,7.9,2.9-5.1,3.4,2-2.9,5.1ZM6.4,54.9l2.4-5.4,3.6,1.6L10,56.4Zm-3,8.7L5.2,58,9,59.2,7.2,64.8Zm-2.1,9,1.2-5.7,3.9.8L5.2,73.4ZM.2,81.7l.6-5.8,3.9.4-.6,5.8ZM0,90.9V85H4v5.9Zm.8,9.2L.2,94.3l3.9-.4.6,5.8Zm1.8,9-1.2-5.7,3.9-.8,1.2,5.7ZM5.2,118l-1.8-5.6,3.8-1.2L9,116.8Zm3.6,8.5-2.4-5.4,3.6-1.6,2.4,5.4Zm4.5,8-2.9-5.1,3.4-2,2.9,5.1Zm5.3,7.6-3.4-4.7,3.2-2.3,3.4,4.7Zm6,6.9-3.9-4.4,2.9-2.7,3.9,4.4Zm6.7,6.3-4.4-3.9,2.7-2.9,4.3,3.9Zm7.3,5.6-4.7-3.4,2.3-3.2,4.7,3.4Zm7.9,4.8-5.1-2.9,2-3.4,5.1,2.9Zm8.4,3.9-5.3-2.4,1.6-3.6,5.3,2.4Zm8.7,3L58,170.8l1.2-3.8,5.6,1.8Zm8.9,2.1-5.7-1.2.8-3.9,5.7,1.2Zm9.2,1.1-5.8-.6.4-3.9,5.8.6Zm9.2.2H85v-4h5.9Zm9.1-.8-5.8.6-.4-3.9,5.8-.6Zm9.1-1.8-5.7,1.2-.8-3.9,5.7-1.2Zm8.8-2.6-5.6,1.8-1.2-3.8,5.6-1.8Zm8.5-3.6-5.4,2.4-1.6-3.6,5.4-2.4Zm8-4.5-5.1,2.9-2-3.4,5.1-2.9Zm7.6-5.2-4.7,3.4-2.3-3.2,4.7-3.4Zm6.9-6.1-4.4,3.9-2.7-2.9,4.4-3.9ZM144.6,20.6l4.4,3.9-2.7,2.9-4.4-3.9Zm-7.4-5.5,4.7,3.4-2.3,3.2-4.7-3.4Zm-7.9-4.8,5.1,2.9-2,3.4-5.1-2.9ZM121,6.4l5.4,2.4-1.6,3.6L119.4,10Zm-8.7-3,5.6,1.8L116.7,9l-5.6-1.8Zm-9-2.1L109,2.5l-.8,3.9-5.7-1.2ZM94.2.2l5.8.6-.4,3.9-5.8-.6ZM85.2,32h5.5v3.7H85.2Zm-8.7,1.2,5.4-.9.6,3.7-5.4.9Zm-8.4,2.4,5.2-1.7,1.2,3.5-5.2,1.7Zm-8,3.8L65,36.9l1.7,3.3-4.9,2.5Zm-7.2,4.9,4.5-3.2,2.2,3-4.5,3.2Zm-6.4,6.1,3.9-3.9L53,49.1,49.1,53Zm-5.4,6.9,3.2-4.5,3,2.2-3.2,4.5ZM36.9,65l2.5-4.9,3.3,1.7-2.5,4.9ZM34,73.3,35.7,68l3.5,1.2-1.7,5.2ZM32.3,82l.9-5.5,3.7.6L36,82.5Zm-.2,8.7V85.2h3.7v5.5Zm1.1,8.8L32.3,94l3.7-.6.9,5.5Zm2.5,8.4L34,102.7l3.5-1.2,1.7,5.2Zm3.7,7.9-2.5-4.9,3.3-1.7,2.5,4.9Zm5,7.3-3.2-4.5,3-2.2,3.2,4.5Zm6,6.4-3.9-3.9,2.6-2.6,3.9,3.9Zm6.9,5.4-4.5-3.2,2.2-3,4.5,3.2Zm7.7,4.2-4.9-2.5,1.7-3.3,4.9,2.5Zm8.3,2.9-5.2-1.7,1.2-3.6,5.2,1.7Zm34.5-1.7-5.2,1.7-1.2-3.5,5.2-1.7Zm8-3.7-4.9,2.5-1.7-3.3,4.9-2.5Zm7.2-5-4.5,3.2-2.2-3,4.5-3.2Zm4.5-4.1-2,2-2.6-2.6,2-2Zm-2-81,2.4,2.4-2.6,2.7-2.4-2.4Zm-6.9-5.4,4.5,3.2-2.2,3-4.5-3.2Zm-7.7-4.2,4.9,2.5-1.7,3.3-4.9-2.5Zm-8.3-3,5.2,1.7-1.2,3.5-5.2-1.7ZM94,32.3l5.4.9-.6,3.7L93.4,36ZM81.9,143.7l-5.4-.9.6-3.7,5.4.9Zm8.8.2H85.2v-3.7h5.5Zm8.7-1.1-5.4.9-.6-3.7,5.4-.9Z"/></clipPath></defs><g id="Calque_2" data-name="Calque 2"><g id="Calque_1-2" data-name="Calque 1"><g class="cls-2"><path id="SVGID" class="cls-3" d="M114.3,12.7c2.3.9,4.6,1.8,6.8,2.9s4.4,2.2,6.4,3.4,4.2,2.6,6.2,3.9,4,2.9,5.9,4.4a1.65,1.65,0,0,1,.2,2.6l-3.4,3.4c-1.1,1.1-2.2,2.1-3.2,3.1l-2.7,2.7c-.8.9-1.7,1.7-2.4,2.5a1.65,1.65,0,0,1-1.9,0l-4.2-3c-1.4-1-2.9-1.9-4.4-2.8s-3-1.6-4.6-2.4-3.1-1.4-4.7-2.2a1.43,1.43,0,0,1-.9-1.6c.3-1.1.7-2.2,1-3.3s.7-2.4,1-3.6c.4-1.4.8-2.8,1.2-4.3s.8-3,1.3-4.6a1.85,1.85,0,0,1,2.4-1.1M73.2,9.6c2.4-.4,4.8-.7,7.3-.9a59.33,59.33,0,0,1,7.3-.2c2.4,0,4.9.1,7.3.3s4.9.5,7.3.9a1.68,1.68,0,0,1,1.5,2.1c-.4,1.6-.9,3.2-1.3,4.7s-.8,2.9-1.2,4.3-.7,2.5-1,3.6-.6,2.3-.8,3.4a1.41,1.41,0,0,1-1.6.9c-1.7-.2-3.4-.3-5.1-.5s-3.4-.2-5.2-.2-3.4.1-5.2.2-3.4.3-5.1.5a1.4,1.4,0,0,1-1.6-1c-.2-1.1-.5-2.2-.8-3.4s-.6-2.4-.9-3.7-.7-2.8-1.1-4.3-.8-3-1.2-4.6A1.6,1.6,0,0,1,73.2,9.6ZM36,27.5a64.56,64.56,0,0,1,5.9-4.4c2-1.4,4.1-2.7,6.2-3.9s4.3-2.3,6.5-3.4,4.5-2,6.7-2.9A1.65,1.65,0,0,1,63.6,14c.4,1.6.8,3.2,1.2,4.7s.7,2.9,1.1,4.3.6,2.5,1,3.7a25.78,25.78,0,0,0,1,3.3,1.38,1.38,0,0,1-.9,1.6c-1.6.7-3.1,1.4-4.7,2.2a40.18,40.18,0,0,0-4.6,2.4c-1.5.9-2.9,1.8-4.3,2.8l-4.2,3a1.65,1.65,0,0,1-1.9,0c-.8-.8-1.5-1.7-2.4-2.5s-1.7-1.8-2.6-2.7-2-2.1-3.1-3.2-2.2-2.2-3.3-3.4A1.82,1.82,0,0,1,36,27.5ZM12.8,61.6c.9-2.3,1.8-4.6,2.9-6.8s2.2-4.4,3.4-6.5,2.6-4.2,3.9-6.2,2.9-4,4.4-5.9A1.65,1.65,0,0,1,30,36c1.2,1.2,2.3,2.3,3.4,3.5s2.1,2.2,3.1,3.2l2.7,2.7c.9.8,1.7,1.7,2.5,2.4a1.65,1.65,0,0,1,0,1.9l-3,4.2c-1,1.4-1.9,2.9-2.8,4.4s-1.6,3-2.4,4.6-1.4,3.1-2.2,4.7a1.43,1.43,0,0,1-1.6.9c-1.1-.3-2.2-.7-3.3-1s-2.4-.7-3.6-1c-1.4-.4-2.8-.8-4.3-1.2s-3-.8-4.6-1.3A1.78,1.78,0,0,1,12.8,61.6ZM9.7,102.7c-.4-2.4-.7-4.8-.9-7.3a59.33,59.33,0,0,1-.2-7.3c0-2.4.1-4.9.3-7.3s.5-4.9.9-7.3A1.68,1.68,0,0,1,11.9,72c1.6.4,3.2.9,4.6,1.3s2.9.8,4.3,1.2,2.5.7,3.6,1,2.3.6,3.4.8a1.41,1.41,0,0,1,.9,1.6c-.1,1.7-.3,3.4-.5,5.1s-.2,3.4-.2,5.2.1,3.4.2,5.2.3,3.4.5,5.2a1.4,1.4,0,0,1-1,1.6c-1.1.2-2.2.5-3.4.8s-2.4.6-3.7.9-2.8.7-4.3,1.1-3,.8-4.6,1.2A1.6,1.6,0,0,1,9.7,102.7Zm17.8,37.2a64.56,64.56,0,0,1-4.4-5.9c-1.4-2-2.7-4.1-3.9-6.2s-2.3-4.3-3.4-6.5-2-4.5-2.9-6.7a1.65,1.65,0,0,1,1.1-2.3c1.6-.4,3.2-.8,4.7-1.2s3-.7,4.3-1.1a31,31,0,0,0,3.6-1,25.78,25.78,0,0,0,3.3-1,1.38,1.38,0,0,1,1.6.9c.7,1.6,1.4,3.1,2.2,4.7a40.18,40.18,0,0,0,2.4,4.6c.9,1.5,1.8,2.9,2.8,4.3l3,4.2a1.65,1.65,0,0,1,0,1.9c-.8.8-1.7,1.5-2.5,2.4s-1.8,1.7-2.7,2.6-2.1,2-3.2,3.1l-3.4,3.4A1.65,1.65,0,0,1,27.5,139.9Zm34.1,23.3c-2.3-.9-4.6-1.8-6.8-2.9s-4.4-2.2-6.5-3.4-4.2-2.6-6.2-4-4-2.9-5.9-4.4a1.72,1.72,0,0,1-.2-2.6l3.4-3.4c1.1-1.1,2.2-2.1,3.2-3.1l2.7-2.7c.8-.9,1.7-1.7,2.4-2.5a1.65,1.65,0,0,1,1.9,0l4.2,3c1.4,1,2.9,1.9,4.4,2.8s3,1.6,4.6,2.4,3.1,1.4,4.7,2.2a1.43,1.43,0,0,1,.9,1.6c-.3,1.1-.7,2.2-1,3.3s-.7,2.4-1,3.6c-.4,1.4-.8,2.8-1.2,4.3s-.8,3-1.3,4.6A1.64,1.64,0,0,1,61.6,163.2Zm41.1,3.1c-2.4.4-4.8.7-7.3.9a59.33,59.33,0,0,1-7.3.2c-2.4,0-4.9-.1-7.3-.3s-4.9-.5-7.3-.9a1.68,1.68,0,0,1-1.5-2.1c.4-1.6.9-3.2,1.3-4.7s.8-2.9,1.2-4.3.7-2.5,1-3.6.6-2.3.8-3.4a1.41,1.41,0,0,1,1.6-.9c1.7.1,3.4.3,5.1.5s3.4.2,5.2.2,3.4-.1,5.1-.2,3.4-.3,5.1-.5a1.4,1.4,0,0,1,1.6,1c.2,1.1.5,2.2.8,3.4s.6,2.4.9,3.7.7,2.8,1.1,4.3.8,3,1.2,4.6C104.5,165.1,103.8,166.1,102.7,166.3Zm37.2-17.9a64.56,64.56,0,0,1-5.9,4.4c-2,1.4-4.1,2.7-6.2,3.9s-4.3,2.3-6.5,3.4-4.5,2-6.7,2.9a1.65,1.65,0,0,1-2.3-1.1c-.4-1.6-.8-3.2-1.2-4.7s-.7-3-1.1-4.3-.6-2.5-1-3.7a25.78,25.78,0,0,0-1-3.3,1.38,1.38,0,0,1,.9-1.6c1.6-.7,3.1-1.4,4.7-2.2a40.18,40.18,0,0,0,4.6-2.4c1.5-.9,2.9-1.8,4.3-2.8l4.2-3a1.65,1.65,0,0,1,1.9,0,27.75,27.75,0,0,0,2.4,2.5c.8.9,1.7,1.8,2.6,2.7s2,2.1,3.1,3.2l3.4,3.4A1.91,1.91,0,0,1,139.9,148.4ZM85,0h5.9V4H85ZM75.8.8,81.6.2,82,4.1l-5.8.6Zm-9,1.7,5.7-1.2.8,3.9L67.6,6.4ZM58,5.2l5.6-1.8,1.2,3.8L59.2,9ZM49.5,8.8l5.4-2.4L56.5,10l-5.3,2.4Zm-8,4.4,5.1-2.9,2,3.4-5.1,2.9Zm-7.6,5.3L38.6,15l2.3,3.2-4.7,3.4ZM27,24.6l4.4-3.9,2.7,3-4.3,3.9Zm-6.3,6.7,3.9-4.4,2.9,2.7L23.6,34Zm-5.6,7.3,3.4-4.7,3.2,2.3-3.4,4.7Zm-4.8,7.9,2.9-5.1,3.4,2-2.9,5.1ZM6.4,54.9l2.4-5.4,3.6,1.6L10,56.4Zm-3,8.7L5.2,58,9,59.2,7.2,64.8Zm-2.1,9,1.2-5.7,3.9.8L5.2,73.4ZM.2,81.7l.6-5.8,3.9.4-.6,5.8ZM0,90.9V85H4v5.9Zm.8,9.2L.2,94.3l3.9-.4.6,5.8Zm1.8,9-1.2-5.7,3.9-.8,1.2,5.7ZM5.2,118l-1.8-5.6,3.8-1.2L9,116.8Zm3.6,8.5-2.4-5.4,3.6-1.6,2.4,5.4Zm4.5,8-2.9-5.1,3.4-2,2.9,5.1Zm5.3,7.6-3.4-4.7,3.2-2.3,3.4,4.7Zm6,6.9-3.9-4.4,2.9-2.7,3.9,4.4Zm6.7,6.3-4.4-3.9,2.7-2.9,4.3,3.9Zm7.3,5.6-4.7-3.4,2.3-3.2,4.7,3.4Zm7.9,4.8-5.1-2.9,2-3.4,5.1,2.9Zm8.4,3.9-5.3-2.4,1.6-3.6,5.3,2.4Zm8.7,3L58,170.8l1.2-3.8,5.6,1.8Zm8.9,2.1-5.7-1.2.8-3.9,5.7,1.2Zm9.2,1.1-5.8-.6.4-3.9,5.8.6Zm9.2.2H85v-4h5.9Zm9.1-.8-5.8.6-.4-3.9,5.8-.6Zm9.1-1.8-5.7,1.2-.8-3.9,5.7-1.2Zm8.8-2.6-5.6,1.8-1.2-3.8,5.6-1.8Zm8.5-3.6-5.4,2.4-1.6-3.6,5.4-2.4Zm8-4.5-5.1,2.9-2-3.4,5.1-2.9Zm7.6-5.2-4.7,3.4-2.3-3.2,4.7-3.4Zm6.9-6.1-4.4,3.9-2.7-2.9,4.4-3.9ZM144.6,20.6l4.4,3.9-2.7,2.9-4.4-3.9Zm-7.4-5.5,4.7,3.4-2.3,3.2-4.7-3.4Zm-7.9-4.8,5.1,2.9-2,3.4-5.1-2.9ZM121,6.4l5.4,2.4-1.6,3.6L119.4,10Zm-8.7-3,5.6,1.8L116.7,9l-5.6-1.8Zm-9-2.1L109,2.5l-.8,3.9-5.7-1.2ZM94.2.2l5.8.6-.4,3.9-5.8-.6ZM85.2,32h5.5v3.7H85.2Zm-8.7,1.2,5.4-.9.6,3.7-5.4.9Zm-8.4,2.4,5.2-1.7,1.2,3.5-5.2,1.7Zm-8,3.8L65,36.9l1.7,3.3-4.9,2.5Zm-7.2,4.9,4.5-3.2,2.2,3-4.5,3.2Zm-6.4,6.1,3.9-3.9L53,49.1,49.1,53Zm-5.4,6.9,3.2-4.5,3,2.2-3.2,4.5ZM36.9,65l2.5-4.9,3.3,1.7-2.5,4.9ZM34,73.3,35.7,68l3.5,1.2-1.7,5.2ZM32.3,82l.9-5.5,3.7.6L36,82.5Zm-.2,8.7V85.2h3.7v5.5Zm1.1,8.8L32.3,94l3.7-.6.9,5.5Zm2.5,8.4L34,102.7l3.5-1.2,1.7,5.2Zm3.7,7.9-2.5-4.9,3.3-1.7,2.5,4.9Zm5,7.3-3.2-4.5,3-2.2,3.2,4.5Zm6,6.4-3.9-3.9,2.6-2.6,3.9,3.9Zm6.9,5.4-4.5-3.2,2.2-3,4.5,3.2Zm7.7,4.2-4.9-2.5,1.7-3.3,4.9,2.5Zm8.3,2.9-5.2-1.7,1.2-3.6,5.2,1.7Zm34.5-1.7-5.2,1.7-1.2-3.5,5.2-1.7Zm8-3.7-4.9,2.5-1.7-3.3,4.9-2.5Zm7.2-5-4.5,3.2-2.2-3,4.5-3.2Zm4.5-4.1-2,2-2.6-2.6,2-2Zm-2-81,2.4,2.4-2.6,2.7-2.4-2.4Zm-6.9-5.4,4.5,3.2-2.2,3-4.5-3.2Zm-7.7-4.2,4.9,2.5-1.7,3.3-4.9-2.5Zm-8.3-3,5.2,1.7-1.2,3.5-5.2-1.7ZM94,32.3l5.4.9-.6,3.7L93.4,36ZM81.9,143.7l-5.4-.9.6-3.7,5.4.9Zm8.8.2H85.2v-3.7h5.5Zm8.7-1.1-5.4.9-.6-3.7,5.4-.9Z" transform="translate(0 0)"/><g class="cls-4"><path class="cls-3" d="M0,0V176H148.9V0Z" transform="translate(0 0)"/></g></g></g></g></svg>