<svg xmlns="http://www.w3.org/2000/svg" xmlns:xlink="http://www.w3.org/1999/xlink" viewBox="0 0 188 188"><defs><style>.cls-1{fill:none;}.cls-2{fill:#fff;}.cls-3{clip-path:url(#clip-path);}.cls-4{fill:url(#Dégradé_sans_nom);}.cls-5{fill:#1e4d9e;}</style><clipPath id="clip-path"><path class="cls-1" d="M121.74,19.24c2.3.9,4.6,1.8,6.8,2.9s4.4,2.2,6.4,3.4,4.2,2.6,6.2,3.9,4,2.9,5.9,4.4a1.65,1.65,0,0,1,.2,2.6l-3.4,3.4c-1.1,1.1-2.2,2.1-3.2,3.1l-2.7,2.7c-.8.9-1.7,1.7-2.4,2.5a1.65,1.65,0,0,1-1.9,0l-4.2-3c-1.4-1-2.9-1.9-4.4-2.8s-3-1.6-4.6-2.4-3.1-1.4-4.7-2.2a1.43,1.43,0,0,1-.9-1.6c.3-1.1.7-2.2,1-3.3s.7-2.4,1-3.6c.4-1.4.8-2.8,1.2-4.3s.8-3,1.3-4.6a1.85,1.85,0,0,1,2.4-1.1m-41.1-3.1c2.4-.4,4.8-.7,7.3-.9a59.33,59.33,0,0,1,7.3-.2c2.4,0,4.9.1,7.3.3s4.9.5,7.3.9a1.68,1.68,0,0,1,1.5,2.1c-.4,1.6-.9,3.2-1.3,4.7s-.8,2.9-1.2,4.3-.7,2.5-1,3.6-.6,2.3-.8,3.4a1.41,1.41,0,0,1-1.6.9c-1.7-.2-3.4-.3-5.1-.5s-3.4-.2-5.2-.2-3.4.1-5.2.2-3.4.3-5.1.5a1.4,1.4,0,0,1-1.6-1c-.2-1.1-.5-2.2-.8-3.4s-.6-2.4-.9-3.7-.7-2.8-1.1-4.3-.8-3-1.2-4.6A1.6,1.6,0,0,1,80.64,16.14ZM43.44,34a64.56,64.56,0,0,1,5.9-4.4c2-1.4,4.1-2.7,6.2-3.9s4.3-2.3,6.5-3.4,4.5-2,6.7-2.9a1.65,1.65,0,0,1,2.3,1.1c.4,1.6.8,3.2,1.2,4.7s.7,2.9,1.1,4.3.6,2.5,1,3.7a25.78,25.78,0,0,0,1,3.3,1.38,1.38,0,0,1-.9,1.6c-1.6.7-3.1,1.4-4.7,2.2a40.18,40.18,0,0,0-4.6,2.4c-1.5.9-2.9,1.8-4.3,2.8l-4.2,3a1.65,1.65,0,0,1-1.9,0c-.8-.8-1.5-1.7-2.4-2.5s-1.7-1.8-2.6-2.7-2-2.1-3.1-3.2-2.2-2.2-3.3-3.4A1.82,1.82,0,0,1,43.44,34Zm-23.2,34.1c.9-2.3,1.8-4.6,2.9-6.8s2.2-4.4,3.4-6.5,2.6-4.2,3.9-6.2,2.9-4,4.4-5.9a1.65,1.65,0,0,1,2.6-.2c1.2,1.2,2.3,2.3,3.4,3.5s2.1,2.2,3.1,3.2l2.7,2.7c.9.8,1.7,1.7,2.5,2.4a1.65,1.65,0,0,1,0,1.9l-3,4.2c-1,1.4-1.9,2.9-2.8,4.4s-1.6,3-2.4,4.6-1.4,3.1-2.2,4.7a1.43,1.43,0,0,1-1.6.9c-1.1-.3-2.2-.7-3.3-1s-2.4-.7-3.6-1c-1.4-.4-2.8-.8-4.3-1.2s-3-.8-4.6-1.3A1.78,1.78,0,0,1,20.24,68.14Zm-3.1,41.1c-.4-2.4-.7-4.8-.9-7.3a59.33,59.33,0,0,1-.2-7.3c0-2.4.1-4.9.3-7.3s.5-4.9.9-7.3a1.68,1.68,0,0,1,2.1-1.5c1.6.4,3.2.9,4.6,1.3s2.9.8,4.3,1.2,2.5.7,3.6,1,2.3.6,3.4.8a1.41,1.41,0,0,1,.9,1.6c-.1,1.7-.3,3.4-.5,5.1s-.2,3.4-.2,5.2.1,3.4.2,5.2.3,3.4.5,5.2a1.4,1.4,0,0,1-1,1.6c-1.1.2-2.2.5-3.4.8s-2.4.6-3.7.9-2.8.7-4.3,1.1-3,.8-4.6,1.2A1.6,1.6,0,0,1,17.14,109.24Zm17.8,37.2a64.56,64.56,0,0,1-4.4-5.9c-1.4-2-2.7-4.1-3.9-6.2s-2.3-4.3-3.4-6.5-2-4.5-2.9-6.7a1.65,1.65,0,0,1,1.1-2.3c1.6-.4,3.2-.8,4.7-1.2s3-.7,4.3-1.1a31,31,0,0,0,3.6-1,25.78,25.78,0,0,0,3.3-1,1.38,1.38,0,0,1,1.6.9c.7,1.6,1.4,3.1,2.2,4.7a40.18,40.18,0,0,0,2.4,4.6c.9,1.5,1.8,2.9,2.8,4.3l3,4.2a1.65,1.65,0,0,1,0,1.9c-.8.8-1.7,1.5-2.5,2.4s-1.8,1.7-2.7,2.6-2.1,2-3.2,3.1l-3.4,3.4A1.65,1.65,0,0,1,34.94,146.44ZM69,169.74c-2.3-.9-4.6-1.8-6.8-2.9s-4.4-2.2-6.5-3.4-4.2-2.6-6.2-4-4-2.9-5.9-4.4a1.72,1.72,0,0,1-.2-2.6l3.4-3.4c1.1-1.1,2.2-2.1,3.2-3.1l2.7-2.7c.8-.9,1.7-1.7,2.4-2.5a1.65,1.65,0,0,1,1.9,0l4.2,3c1.4,1,2.9,1.9,4.4,2.8s3,1.6,4.6,2.4,3.1,1.4,4.7,2.2a1.43,1.43,0,0,1,.9,1.6c-.3,1.1-.7,2.2-1,3.3s-.7,2.4-1,3.6c-.4,1.4-.8,2.8-1.2,4.3s-.8,3-1.3,4.6A1.64,1.64,0,0,1,69,169.74Zm41.1,3.1c-2.4.4-4.8.7-7.3.9a59.33,59.33,0,0,1-7.3.2c-2.4,0-4.9-.1-7.3-.3s-4.9-.5-7.3-.9a1.68,1.68,0,0,1-1.5-2.1c.4-1.6.9-3.2,1.3-4.7s.8-2.9,1.2-4.3.7-2.5,1-3.6.6-2.3.8-3.4a1.41,1.41,0,0,1,1.6-.9c1.7.1,3.4.3,5.1.5s3.4.2,5.2.2,3.4-.1,5.1-.2,3.4-.3,5.1-.5a1.4,1.4,0,0,1,1.6,1c.2,1.1.5,2.2.8,3.4s.6,2.4.9,3.7.7,2.8,1.1,4.3.8,3,1.2,4.6C111.94,171.64,111.24,172.64,110.14,172.84Zm37.2-17.9a64.56,64.56,0,0,1-5.9,4.4c-2,1.4-4.1,2.7-6.2,3.9s-4.3,2.3-6.5,3.4-4.5,2-6.7,2.9a1.65,1.65,0,0,1-2.3-1.1c-.4-1.6-.8-3.2-1.2-4.7s-.7-3-1.1-4.3-.6-2.5-1-3.7a25.78,25.78,0,0,0-1-3.3,1.38,1.38,0,0,1,.9-1.6c1.6-.7,3.1-1.4,4.7-2.2a40.18,40.18,0,0,0,4.6-2.4c1.5-.9,2.9-1.8,4.3-2.8l4.2-3a1.65,1.65,0,0,1,1.9,0,27.75,27.75,0,0,0,2.4,2.5c.8.9,1.7,1.8,2.6,2.7s2,2.1,3.1,3.2l3.4,3.4A1.91,1.91,0,0,1,147.34,154.94ZM92.44,6.54h5.9v4h-5.9Zm-9.2.8,5.8-.6.4,3.9-5.8.6Zm-9,1.7,5.7-1.2.8,3.9L75,12.94Zm-8.8,2.7L71,9.94l1.2,3.8-5.6,1.8Zm-8.5,3.6,5.4-2.4,1.6,3.6-5.3,2.4Zm-8,4.4,5.1-2.9,2,3.4-5.1,2.9ZM41.34,25l4.7-3.5,2.3,3.2-4.7,3.4Zm-6.9,6.1,4.4-3.9,2.7,3-4.3,3.9Zm-6.3,6.7,3.9-4.4,2.9,2.7L31,40.54Zm-5.6,7.3,3.4-4.7,3.2,2.3-3.4,4.7ZM17.74,53l2.9-5.1,3.4,2L21.14,55Zm-3.9,8.4,2.4-5.4,3.6,1.6-2.4,5.3Zm-3,8.7,1.8-5.6,3.8,1.2-1.8,5.6Zm-2.1,9,1.2-5.7,3.9.8-1.2,5.7Zm-1.1,9.1.6-5.8,3.9.4-.6,5.8Zm-.2,9.2v-5.9h4v5.9Zm.8,9.2-.6-5.8,3.9-.4.6,5.8Zm1.8,9-1.2-5.7,3.9-.8,1.2,5.7Zm2.6,8.9-1.8-5.6,3.8-1.2,1.8,5.6Zm3.6,8.5-2.4-5.4,3.6-1.6,2.4,5.4Zm4.5,8-2.9-5.1,3.4-2,2.9,5.1Zm5.3,7.6-3.4-4.7,3.2-2.3,3.4,4.7Zm6,6.9-3.9-4.4,2.9-2.7,3.9,4.4Zm6.7,6.3-4.4-3.9L37,155l4.3,3.9Zm7.3,5.6-4.7-3.4,2.3-3.2,4.7,3.4Zm7.9,4.8-5.1-2.9,2-3.4,5.1,2.9Zm8.4,3.9-5.3-2.4,1.6-3.6,5.3,2.4Zm8.7,3-5.6-1.8,1.2-3.8,5.6,1.8Zm8.9,2.1-5.7-1.2.8-3.9,5.7,1.2Zm9.2,1.1-5.8-.6.4-3.9,5.8.6Zm9.2.2h-5.9v-4h5.9Zm9.1-.8-5.8.6-.4-3.9,5.8-.6Zm9.1-1.8-5.7,1.2-.8-3.9,5.7-1.2Zm8.8-2.6-5.6,1.8-1.2-3.8,5.6-1.8Zm8.5-3.6-5.4,2.4-1.6-3.6,5.4-2.4Zm8-4.5-5.1,2.9-2-3.4,5.1-2.9Zm7.6-5.2-4.7,3.4-2.3-3.2,4.7-3.4Zm6.9-6.1-4.4,3.9-2.7-2.9,4.4-3.9ZM152,27.14l4.4,3.9-2.7,2.9-4.4-3.9Zm-7.4-5.5,4.7,3.4-2.3,3.2-4.7-3.4Zm-7.9-4.8,5.1,2.9-2,3.4-5.1-2.9Zm-8.3-3.9,5.4,2.4-1.6,3.6-5.4-2.4Zm-8.7-3,5.6,1.8-1.2,3.8-5.6-1.8Zm-9-2.1,5.7,1.2-.8,3.9-5.7-1.2Zm-9.1-1.1,5.8.6-.4,3.9-5.8-.6Zm-9,31.8h5.5v3.7h-5.5Zm-8.7,1.2,5.4-.9.6,3.7-5.4.9Zm-8.4,2.4,5.2-1.7,1.2,3.5-5.2,1.7Zm-8,3.8,4.9-2.5,1.7,3.3-4.9,2.5Zm-7.2,4.9,4.5-3.2,2.2,3-4.5,3.2Zm-6.4,6.1,3.9-3.9,2.6,2.6-3.9,3.9Zm-5.4,6.9,3.2-4.5,3,2.2L51.54,66Zm-4.2,7.7,2.5-4.9,3.3,1.7-2.5,4.9Zm-2.9,8.3,1.7-5.3,3.5,1.2-1.7,5.2Zm-1.7,8.7.9-5.5,3.7.6-.9,5.4Zm-.2,8.7v-5.5h3.7v5.5Zm1.1,8.8-.9-5.5,3.7-.6.9,5.5Zm2.5,8.4-1.7-5.2,3.5-1.2,1.7,5.2Zm3.7,7.9-2.5-4.9,3.3-1.7,2.5,4.9Zm5,7.3-3.2-4.5,3-2.2,3.2,4.5Zm6,6.4-3.9-3.9,2.6-2.6,3.9,3.9Zm6.9,5.4-4.5-3.2,2.2-3,4.5,3.2Zm7.7,4.2-4.9-2.5,1.7-3.3,4.9,2.5Zm8.3,2.9-5.2-1.7,1.2-3.6,5.2,1.7Zm34.5-1.7-5.2,1.7-1.2-3.5,5.2-1.7Zm8-3.7-4.9,2.5-1.7-3.3,4.9-2.5Zm7.2-5-4.5,3.2-2.2-3,4.5-3.2Zm4.5-4.1-2,2-2.6-2.6,2-2Zm-2-81,2.4,2.4-2.6,2.7-2.4-2.4Zm-6.9-5.4,4.5,3.2-2.2,3-4.5-3.2Zm-7.7-4.2,4.9,2.5-1.7,3.3-4.9-2.5Zm-8.3-3,5.2,1.7-1.2,3.5-5.2-1.7Zm-8.6-1.6,5.4.9-.6,3.7-5.4-.9Zm-12.1,111.4-5.4-.9.6-3.7,5.4.9Zm8.8.2h-5.5v-3.7h5.5Zm8.7-1.1-5.4.9-.6-3.7,5.4-.9Z"/></clipPath><radialGradient id="Dégradé_sans_nom" cx="81.89" cy="94.54" r="81.51" gradientUnits="userSpaceOnUse"><stop offset="0" stop-color="#130c0e"/><stop offset="1" stop-color="#130c0e"/></radialGradient></defs><g id="Calque_2" data-name="Calque 2"><g id="Calque_1-2" data-name="Calque 1"><rect class="cls-2" width="188" height="188" rx="57.01"/></g><g id="Version_noire" data-name="Version noire"><g id="logo-C"><g class="cls-3"><path class="cls-4" d="M7.44,6.54v176h148.9V6.54Z"/></g></g><g id="lys"><path class="cls-5" d="M119.64,92.94a8.27,8.27,0,0,1,.3,4.4.37.37,0,0,1-.1.3l-.1.2v.1h0l-.2.7c0,.1,0,.1-.1.2v.1c-.1.2-.1.4-.2.5a8.71,8.71,0,0,1-1.1,1.8,7.88,7.88,0,0,1-3.1,2.3,8,8,0,0,1-3,.6h-.3a7.72,7.72,0,0,1-1.5-.2c-.1,0-.2-.1-.3-.1h-.3l-.3-.1-.2-.1-.2-.1a6.42,6.42,0,0,1-2-1.6l-.6-.9c-.1-.3-.3-.6-.4-.9s-.1-.6-.2-.8v-.8a4.25,4.25,0,0,1,.2-1.1,2.07,2.07,0,0,0,.2-.6l.1-.2a.69.69,0,0,1,.9-.3,1,1,0,0,1,.4.5l.1.2v.3c0,.1,0,.1.1.2a2.57,2.57,0,0,0,.9,1.3,2.18,2.18,0,0,0,.8.5,2.92,2.92,0,0,0,.9.2h.6c.2-.1.4-.1.5-.2a5.55,5.55,0,0,0,.8-.6,1.23,1.23,0,0,0,.4-.8c0-.1.1-.3.1-.4v-.1h0v-.3h0a1.61,1.61,0,0,0-.3-.9,5.55,5.55,0,0,0-.6-.8l-.2-.2-.1-.1h0l-.1-.1h0a2.19,2.19,0,0,1-.5-.3,5.78,5.78,0,0,0-1.4-.5,2.72,2.72,0,0,0-.9,0h-.9a7,7,0,0,0-2,.8,11,11,0,0,0-1.8,1.4,14.28,14.28,0,0,0-1.5,1.8c-.2.3-.4.7-.6,1a.1.1,0,0,1-.1.1l-.1.3-.3-.1a15.51,15.51,0,0,0-4.6-1.4l-.4-.1.1-.4v-.1c0-.1.1-.3.1-.4a7.74,7.74,0,0,1,.7-1.6,15.9,15.9,0,0,1,4.6-5.7,16.15,16.15,0,0,1,3.3-2h.1l.4-.2c.2-.1.3-.1.5-.2.4-.1.7-.2,1-.3a15.52,15.52,0,0,1,2.1-.4,13,13,0,0,1,4.4.5c.2.1.3.1.5.2h.1c.2.1.3.1.5.2a8.79,8.79,0,0,1,1,.6l.3.2.2.1.4.3.1.1c.3.3.6.5.9.8A5.22,5.22,0,0,1,119.64,92.94Zm-.3,4.3a8.2,8.2,0,0,0-.3-4.1,9,9,0,0,0-2.2-3.6,5.72,5.72,0,0,0-.8-.7l-.2-.2-.2-.2-.4-.3c-.3-.2-.6-.3-.9-.5s-.3-.1-.5-.2h-.1c-.2-.1-.3-.1-.5-.2a9.47,9.47,0,0,0-4.1-.5l-2,.3c-.3.1-.6.2-1,.3-.1.1-.3.1-.5.2l-.4.2h-.1a15,15,0,0,0-3.2,1.9,14.72,14.72,0,0,0-4.4,5.5c-.2.5-.5,1-.7,1.6,0,.1,0,.1-.1.2a16.42,16.42,0,0,1,4.1,1.3c.2-.3.3-.6.5-.9a14.62,14.62,0,0,1,1.6-1.9,12.45,12.45,0,0,1,1.9-1.5A8.49,8.49,0,0,1,107,93h.6a.75.75,0,0,0,.5-.1,3.75,3.75,0,0,1,1,.1,4.28,4.28,0,0,1,1.6.5,2.09,2.09,0,0,1,.6.4h0l.2.1h.1l.2.2a2.29,2.29,0,0,1,.7,1,6.89,6.89,0,0,1,.4,1c0,.1.1.1,0,.2v.2h0v.1h0a1.27,1.27,0,0,1-.1.6,2.07,2.07,0,0,1-.6,1,3.92,3.92,0,0,1-1,.8,1.42,1.42,0,0,1-.6.2v.1H110a2.54,2.54,0,0,1-1.2-.2,8.79,8.79,0,0,1-1-.6,3,3,0,0,1-1-1.5.35.35,0,0,0-.1-.2v-.3l-.1-.2h-.1l-.1.2c-.1.2-.1.3-.2.5a3.08,3.08,0,0,0-.1,1h0v.6a1.45,1.45,0,0,0,.2.7,6.89,6.89,0,0,0,.3.8,2.18,2.18,0,0,0,.5.8,6.55,6.55,0,0,0,1.8,1.5l.2.1.5.2h.1l.2.1c.1,0,.2.1.3.1a5.9,5.9,0,0,0,1.4.2,5.75,5.75,0,0,0,3.1-.6,7.39,7.39,0,0,0,2.8-2.1,7,7,0,0,0,1-1.6c.1-.1.1-.3.2-.5v-.2l.2-.7h0v-.3C119.34,97.34,119.34,97.34,119.34,97.24Zm-9.5,6.2.1-.3h-.1Z"/><path class="cls-5" d="M119,93.14a9.53,9.53,0,0,1,.3,4.1c0,.1,0,.2-.1.2v.3h0l-.2.7v.2c-.1.2-.1.3-.2.5a8.64,8.64,0,0,1-1,1.6,6.5,6.5,0,0,1-2.8,2.1,8.15,8.15,0,0,1-3.1.6,6.75,6.75,0,0,1-1.4-.2c-.1,0-.2-.1-.3-.1l-.2-.1h-.1l-.5-.2-.2-.1a5.17,5.17,0,0,1-1.8-1.5,9.22,9.22,0,0,1-.5-.8,6.89,6.89,0,0,1-.3-.8c-.1-.2-.1-.5-.2-.7v-.6h0c0-.3.1-.6.1-1,.1-.2.1-.4.2-.5l.1-.2h.1l.1.2v.3c0,.1,0,.2.1.2a5.56,5.56,0,0,0,1,1.5,2.07,2.07,0,0,0,1,.6,5,5,0,0,0,1.2.2h.6v-.1a1.42,1.42,0,0,1,.6-.2,3.92,3.92,0,0,0,1-.8,2.66,2.66,0,0,0,.6-1,1.27,1.27,0,0,0,.1-.6h0v-.1h0v-.4a4.18,4.18,0,0,0-.4-1,6.07,6.07,0,0,0-.7-1l-.2-.2h-.1l-.2-.1h0a2.09,2.09,0,0,0-.6-.4,3,3,0,0,0-1.6-.5,3.08,3.08,0,0,0-1-.1.9.9,0,0,0-.5.1h-.6a8.49,8.49,0,0,0-2.2.9,9,9,0,0,0-1.9,1.5,14.62,14.62,0,0,0-1.6,1.9,4.05,4.05,0,0,0-.5.9,16.42,16.42,0,0,0-4.1-1.3.31.31,0,0,1,.1-.2,11.11,11.11,0,0,1,.7-1.6,16.73,16.73,0,0,1,4.4-5.5,15,15,0,0,1,3.2-1.9h.1l.4-.2c.2-.1.3-.1.5-.2.4-.1.7-.2,1-.3a6.93,6.93,0,0,1,2-.3,9.29,9.29,0,0,1,4.1.5c.2.1.3.1.5.2h.1c.2.1.3.1.5.2s.6.3.9.5l.4.3.2.2.2.2a5.72,5.72,0,0,1,.8.7A8,8,0,0,1,119,93.14Z"/><path class="cls-5" d="M108.54,116.64a.61.61,0,0,1,.4.9.63.63,0,0,1-.6.5h-.6l-.3-.1-.4-.1h-.2a.37.37,0,0,1-.3-.1,5.64,5.64,0,0,1-1.2-.4l-1.5-.6a14,14,0,0,1-1.6-1,16.17,16.17,0,0,1-3.2-3.2,15.65,15.65,0,0,1-2.5-4.8,14.47,14.47,0,0,1-.8-3.6l-.1-.4.4.1a8.25,8.25,0,0,1,4.2,2l.1.1v.1c0,.3.1.5.1.8a14.19,14.19,0,0,0,.5,2.2,10.84,10.84,0,0,0,.8,1.9,4.05,4.05,0,0,0,.5.9,5.58,5.58,0,0,0,.5.8,6.89,6.89,0,0,0,1.1,1.3,10.59,10.59,0,0,0,1.2,1l1.1.8c.7.4,1.3.6,1.7.8l.3.1h.4Zm-.2.6h0l-.2-.1h-.3l-.3-.1a7.48,7.48,0,0,1-1.8-.9,8.34,8.34,0,0,1-1.2-.8,12,12,0,0,1-1.2-1.1,17.41,17.41,0,0,1-1.2-1.4,5.58,5.58,0,0,1-.5-.8c-.2-.3-.3-.6-.5-.9a11.92,11.92,0,0,1-.8-2,15.54,15.54,0,0,1-.5-2.3c0-.2-.1-.5-.1-.7a7.82,7.82,0,0,0-3.3-1.6c.2,1,.4,2,.7,3a16.72,16.72,0,0,0,2.4,4.6,15.18,15.18,0,0,0,3.1,3.1,6,6,0,0,0,1.5.9c.4.2.9.4,1.4.6a5.27,5.27,0,0,0,1.2.3c.1,0,.2.1.3.1h.2l.4.1h.7Z"/><path class="cls-5" d="M108.34,117.24h0l-.2.1h-.6l-.4-.1h-.2c-.1,0-.2-.1-.3-.1l-1.2-.3c-.5-.2-1-.4-1.4-.6l-1.5-.9a13,13,0,0,1-3.1-3.1,18.28,18.28,0,0,1-2.4-4.6,16.28,16.28,0,0,1-.7-3,7.82,7.82,0,0,1,3.3,1.6c0,.2.1.5.1.7a15.54,15.54,0,0,0,.5,2.3,11.92,11.92,0,0,0,.8,2c.2.3.3.6.5.9a9.22,9.22,0,0,1,.5.8,17.41,17.41,0,0,0,1.2,1.4,12,12,0,0,0,1.2,1.1,8.34,8.34,0,0,0,1.2.8c.7.4,1.4.7,1.8.9l.3.1h.6Z"/><path class="cls-5" d="M89.84,103.64l-.1.4a23.25,23.25,0,0,1-.8,3.6,15.65,15.65,0,0,1-2.5,4.8,14.35,14.35,0,0,1-3.3,3.2,14,14,0,0,1-1.6,1l-1.5.6a5.64,5.64,0,0,1-1.2.4.37.37,0,0,0-.3.1h-.2l-.4.1H77a.56.56,0,0,1-.6-.5.81.81,0,0,1,.4-.9l.2-.1h.2l.3-.1c.4-.2,1-.4,1.7-.8a7.63,7.63,0,0,0,1.1-.8,10.59,10.59,0,0,0,1.2-1,12.67,12.67,0,0,0,1.1-1.3,5.58,5.58,0,0,0,.5-.8c.2-.3.3-.6.5-.9a10.84,10.84,0,0,0,.8-1.9,14.19,14.19,0,0,0,.5-2.2c0-.3.1-.5.1-.8v-.1l.1-.1a8.25,8.25,0,0,1,4.2-2Zm-1.4,3.9a16.28,16.28,0,0,0,.7-3,7.82,7.82,0,0,0-3.3,1.6c0,.2-.1.5-.1.7a15.54,15.54,0,0,1-.5,2.3,11.92,11.92,0,0,1-.8,2c-.2.3-.3.6-.5.9a9.22,9.22,0,0,0-.5.8,17.41,17.41,0,0,1-1.2,1.4,12,12,0,0,1-1.2,1.1,8.34,8.34,0,0,1-1.2.8c-.7.4-1.4.7-1.8.9l-.3.1h-.3l-.2.1v.1h.7l.4-.1h.1c.1,0,.2-.1.3-.1l1.2-.3c.5-.2,1-.4,1.4-.6l1.5-.9a13,13,0,0,0,3.1-3.1A17.74,17.74,0,0,0,88.44,107.54Z"/><path class="cls-5" d="M89.24,97l.1.4-.4.1a20.64,20.64,0,0,0-4.6,1.4L84,99l-.1-.3a.1.1,0,0,0-.1-.1,8.79,8.79,0,0,0-.6-1,6.55,6.55,0,0,0-1.5-1.8,22,22,0,0,0-1.8-1.4,7,7,0,0,0-2-.8h-1.8a3.36,3.36,0,0,0-1.4.5c-.2.1-.3.2-.5.3h0l-.1.1h0l-.2.2c-.2.3-.5.5-.6.8a3.18,3.18,0,0,0-.3.9v.1h0v.3h0v.1a.76.76,0,0,0,.1.4,2,2,0,0,0,.4.8,2.41,2.41,0,0,0,.8.6c.2.1.3.1.5.2h.5a1.49,1.49,0,0,0,.9-.2,2.18,2.18,0,0,0,.8-.5,3.4,3.4,0,0,0,.9-1.3c0-.1,0-.1.1-.2v-.5a1,1,0,0,1,.4-.5.66.66,0,0,1,.9.3l.1.2a1.42,1.42,0,0,1,.2.6,4.25,4.25,0,0,1,.2,1.1v.8a1.88,1.88,0,0,1-.2.8,3.55,3.55,0,0,1-.4.9l-.6.9a4.47,4.47,0,0,1-2,1.6l-.3.1-.5.2h-.3c-.1,0-.2.1-.3.1a7.72,7.72,0,0,1-1.5.2h-.3a8,8,0,0,1-3-.6,7.83,7.83,0,0,1-4.2-4.1.76.76,0,0,1-.2-.5V98l-.2-.7h0v-.1l-.1-.3a.37.37,0,0,0-.1-.3,8.27,8.27,0,0,1,.3-4.4,11.83,11.83,0,0,1,2.3-3.9,5.72,5.72,0,0,1,.8-.7l.2-.2.3-.2.4-.3a8.79,8.79,0,0,1,1-.6c.2-.1.3-.2.5-.2h.1c.2-.1.3-.1.5-.2a9.38,9.38,0,0,1,4.4-.5,15.52,15.52,0,0,1,2.1.4c.3.1.6.2,1,.3.2,0,.3.1.5.2l.4.2h.1a19.38,19.38,0,0,1,3.3,2,14.91,14.91,0,0,1,4.6,5.7c.2.5.5,1.1.7,1.7a2.53,2.53,0,0,0,.1,1.1Zm-.7-.1a.31.31,0,0,0-.1-.2c-.2-.5-.4-1.1-.6-1.6a16.73,16.73,0,0,0-4.4-5.5,15,15,0,0,0-3.2-1.9h-.1l-.4-.2c-.2-.1-.3-.1-.5-.2a9.44,9.44,0,0,1-.9-.3,6.93,6.93,0,0,0-2-.3,9.29,9.29,0,0,0-4.1.5c-.2.1-.3.1-.5.2h-.1c-.2.1-.3.1-.5.2a3.6,3.6,0,0,0-.9.5l-.2.2-.1.1-.4.3-.1.1a5.72,5.72,0,0,0-.8.7,9,9,0,0,0-2.2,3.6,9.53,9.53,0,0,0-.3,4.1v.2l.1.2v.1h0l.2.7v.2c.1.2.1.3.2.5a8.64,8.64,0,0,0,1,1.6,7.15,7.15,0,0,0,2.8,2.1,8.15,8.15,0,0,0,3.1.6,6.75,6.75,0,0,0,1.4-.2c.1,0,.2-.1.3-.1l.2-.1h.1l.2-.1.3-.1.2-.1a5.17,5.17,0,0,0,1.8-1.5,9.22,9.22,0,0,0,.5-.8,6.89,6.89,0,0,0,.3-.8c.1-.2.1-.5.2-.7v-.7h0a3.75,3.75,0,0,0-.1-1c-.1-.2-.1-.4-.2-.5l-.1-.2h-.1V97a.35.35,0,0,1-.1.2,5.56,5.56,0,0,1-1,1.5,2.07,2.07,0,0,1-1,.6,2.54,2.54,0,0,1-1.2.2h-.7v-.1a1.42,1.42,0,0,0-.6-.2,3.92,3.92,0,0,1-1-.8,2.38,2.38,0,0,1-.6-1.1,4.33,4.33,0,0,0-.1-.5h0v-.1h0v-.4a2.11,2.11,0,0,1,.4-1,3.92,3.92,0,0,1,.8-1l.2-.2h0l.1-.1h0a2.09,2.09,0,0,1,.6-.4,3,3,0,0,1,1.6-.5,3.08,3.08,0,0,1,1-.1.9.9,0,0,1,.5.1H78a8.49,8.49,0,0,1,2.2.9,9,9,0,0,1,1.9,1.5,14.62,14.62,0,0,1,1.6,1.9,4.05,4.05,0,0,1,.5.9A16.65,16.65,0,0,1,88.54,96.94Z"/><path class="cls-5" d="M89.14,104.54c-.2,1-.4,2-.7,3a16.72,16.72,0,0,1-2.4,4.6,15.18,15.18,0,0,1-3.1,3.1,6,6,0,0,1-1.5.9c-.4.2-.9.4-1.4.6a5.27,5.27,0,0,1-1.2.3c-.1,0-.2.1-.3.1h-.1l-.4.1h-.7v-.1l.2-.1h.3l.3-.1a7.48,7.48,0,0,0,1.8-.9,8.34,8.34,0,0,0,1.2-.8,12,12,0,0,0,1.2-1.1,17.41,17.41,0,0,0,1.2-1.4,2.18,2.18,0,0,0,.5-.8c.2-.3.3-.6.5-.9a11.92,11.92,0,0,0,.8-2,15.54,15.54,0,0,0,.5-2.3c0-.2.1-.5.1-.7A6.36,6.36,0,0,1,89.14,104.54Z"/><path class="cls-5" d="M88.44,96.74c0,.1.1.1.1.2a16.42,16.42,0,0,0-4.1,1.3c-.2-.3-.3-.6-.5-.9a14.62,14.62,0,0,0-1.6-1.9,9,9,0,0,0-1.9-1.5,8.49,8.49,0,0,0-2.2-.9h-.6a.75.75,0,0,1-.5-.1,3.4,3.4,0,0,0-1,.1,4.28,4.28,0,0,0-1.6.5,2.09,2.09,0,0,0-.6.4h0l-.1.1h0l-.2.2a3.92,3.92,0,0,0-.8,1,4.18,4.18,0,0,0-.4,1c0,.1-.1.1,0,.2v.2h0v.1h0a.75.75,0,0,0,.1.5,3,3,0,0,0,.6,1.1,3.92,3.92,0,0,0,1,.8,1.42,1.42,0,0,0,.6.2v.1h.7a2.54,2.54,0,0,0,1.2-.2,2.07,2.07,0,0,0,1-.6,3,3,0,0,0,1-1.5.35.35,0,0,1,.1-.2v-.5h.1l.1.2c.1.2.1.3.2.5a3.08,3.08,0,0,1,.1,1h0v.7a1.45,1.45,0,0,1-.2.7,6.89,6.89,0,0,1-.3.8,2.18,2.18,0,0,1-.5.8,6.55,6.55,0,0,1-1.8,1.5l-.2.1-.3.1-.2.1h-.1l-.2.1c-.1,0-.2.1-.3.1a5.9,5.9,0,0,1-1.4.2,5.75,5.75,0,0,1-3.1-.6,7.39,7.39,0,0,1-2.8-2.1,7,7,0,0,1-1-1.6c-.1-.1-.1-.3-.2-.5v-.2l-.2-.7h0v-.1l-.1-.2v-.2a8.2,8.2,0,0,1,.3-4.1,9,9,0,0,1,2.2-3.6,5.72,5.72,0,0,1,.8-.7l.1-.1.4-.3.1-.1.2-.2c.3-.2.6-.3.9-.5s.3-.1.5-.2h.1c.2-.1.3-.1.5-.2a9.47,9.47,0,0,1,4.1-.5l2,.3.9.3c.1.1.3.1.5.2l.4.2h.1a15,15,0,0,1,3.2,1.9A14.72,14.72,0,0,1,88,95,8.47,8.47,0,0,0,88.44,96.74Z"/><path class="cls-5" d="M102.34,65.54c2.7,5,1.4,8-1.3,14.6-.3.7-.6,1.5-1,2.4a25.5,25.5,0,0,1-1.3,2.9,43.17,43.17,0,0,0-3.8,11.5v.3h-.3a18.1,18.1,0,0,0-3.8,0h-.3l-.1-.3a47,47,0,0,0-3.7-11.5c-.4-.9-.8-1.9-1.3-2.9-.3-.9-.7-1.6-1-2.4-2.8-6.6-4-9.6-1.3-14.6a106.79,106.79,0,0,1,6.5-10,38.5,38.5,0,0,0,2.7-4.2h.6a47,47,0,0,0,2.8,4.2C97.84,58.44,100.64,62.54,102.34,65.54Zm-1.9,14.4c2.8-6.6,3.9-9.3,1.3-14.1-1.6-3-4.4-7-6.4-10-1.4-2-2.2-3.1-2.6-3.8-.4.7-1.2,1.8-2.6,3.8a105.74,105.74,0,0,0-6.4,10c-2.6,4.8-1.4,7.5,1.4,14.1.3.8.6,1.5,1,2.4s.8,1.9,1.2,2.9a49.18,49.18,0,0,1,3.8,11.4,9.15,9.15,0,0,1,1.6-.1,8.6,8.6,0,0,1,1.6.1,41.29,41.29,0,0,1,3.8-11.4c.4-1,.8-1.9,1.2-2.9S100,80.74,100.44,79.94Z"/><path class="cls-5" d="M101.74,65.84c2.6,4.8,1.4,7.5-1.3,14.1-.3.8-.6,1.5-1,2.4s-.8,1.9-1.2,2.9a49.18,49.18,0,0,0-3.8,11.4,9.15,9.15,0,0,0-1.6-.1,8.08,8.08,0,0,0-1.6.1,41.29,41.29,0,0,0-3.8-11.4c-.4-1-.8-1.9-1.2-2.9-.3-.8-.7-1.6-1-2.4-2.8-6.6-3.9-9.3-1.4-14.1,1.6-3,4.4-7,6.4-10,1.4-2,2.2-3.1,2.6-3.8.4.7,1.2,1.8,2.6,3.8C97.34,58.84,100.14,62.84,101.74,65.84Z"/><path class="cls-5" d="M101.34,125.14l.2.2-.2.2a102.73,102.73,0,0,0-8.2,6.8v-.1h-.6v.1c-.5-.7-5.3-4.5-8.2-6.8l-.2-.2.2-.2c1.4-2,6.2-9.4,6.7-21.3v-.3h.3a18.19,18.19,0,0,1,3.3,0h.3v.3C95.14,115.74,99.94,123.14,101.34,125.14Zm-4.6,3.3c1.7-1.3,3.3-2.6,3.9-3.1a40.61,40.61,0,0,1-6.6-21.1,11.3,11.3,0,0,0-2.6,0,40.61,40.61,0,0,1-6.6,21.1c.6.5,2.3,1.8,3.9,3.1,2.5,2,3.5,2.9,4,3.4C93.24,131.34,94.24,130.44,96.74,128.44Z"/><path class="cls-5" d="M100.64,125.24c-.6.5-2.3,1.8-3.9,3.1-2.5,2-3.5,2.9-4,3.4a36.65,36.65,0,0,0-4-3.4c-1.7-1.3-3.3-2.6-3.9-3.1a40.61,40.61,0,0,0,6.6-21.1,11.3,11.3,0,0,1,2.6,0C94.64,115.54,99,122.94,100.64,125.24Z"/><path class="cls-5" d="M100.84,99.84a18.28,18.28,0,0,0-8.1-1.7,18.59,18.59,0,0,0-8.1,1.7c-2.2,1.1-3.4,2.7-3.4,4.4a4.61,4.61,0,0,0,1.9,3.4l.6.5-.1-.8V107c0-1.2.9-2.3,2.6-3.1a14.5,14.5,0,0,1,6.5-1.4,14.19,14.19,0,0,1,6.5,1.4c1.7.9,2.6,2,2.6,3.1v.3l-.1.8.6-.5a4.61,4.61,0,0,0,1.9-3.4C104.24,102.54,103,101,100.84,99.84Z"/></g></g></g></svg>